<?xml version="1.0" encoding="utf-8"?>
<!-- Generator: Adobe Illustrator 16.0.0, SVG Export Plug-In . SVG Version: 6.00 Build 0)  -->
<!DOCTYPE svg PUBLIC "-//W3C//DTD SVG 1.1//EN" "http://www.w3.org/Graphics/SVG/1.1/DTD/svg11.dtd">
<svg version="1.1" id="Home_1_" xmlns="http://www.w3.org/2000/svg" xmlns:xlink="http://www.w3.org/1999/xlink" x="0px" y="0px"
	 width="833.8px" height="113.1px" viewBox="0 0 833.8 113.1" style="enable-background:new 0 0 833.8 113.1;" xml:space="preserve"
	>
<style type="text/css">
<![CDATA[
	.st0{fill:#80BF04;}
	.st1{fill:#80DB2F;}
	.st2{fill:#FE9703;}
	.st3{fill:#FEAE22;}
	.st4{fill:#FFDE17;}
	.st5{fill:#004993;}
	.st6{fill:#00911D;}
	.st7{fill:#00A99D;}
	.st8{fill:#090BC0;}
	.st9{fill:#A7121B;}
	.st10{fill:#0D6EEE;}
	.st11{fill:#A81ACE;}
]]>
</style>
<g>
	<polyline class="st10" points="92.9,2.4 66.2,2.4 47.2,76.9 46.9,76.9 26.7,2.4 0,2.4 0,110.7 17.9,110.7 17.9,34.7 18.1,34.7 
		39.2,110.7 53.9,110.7 75,33.9 75.2,33.9 75.2,110.7 92.9,110.7 75.4,110.7 92.9,52.6 92.9,2.4 	"/>
	<path class="st7" d="M106.2,68.8L117.4,29h0.2l10.9,39.8H106.2 M127.4,2.4H108L92.9,52.6v58.1h1.5l6.8-24.1h32.3l6.5,24.1h19.7
		l-0.2-0.7v0.7h-17.8V50.3L127.4,2.4"/>
	<polyline class="st5" points="92.9,52.6 75.4,110.7 92.9,110.7 92.9,52.6 	"/>
	<polyline class="st1" points="203.9,2.4 196.8,2.4 196.8,75.1 196.6,75.1 160.6,2.4 141.7,2.4 141.7,50.3 159.5,110 159.5,38.2 
		159.7,38.2 195.6,110.7 214.6,110.7 203.9,110.7 203.9,2.4 	"/>
	<polyline class="st6" points="141.7,50.3 141.7,110.7 159.5,110.7 159.5,110 141.7,50.3 	"/>
	<path class="st4" d="M222.8,90.7V22.4h13.5c4.7,0,8.6,0.8,11.8,2.5c3.2,1.7,5.8,4.1,7.7,7.2c2,3.1,3.4,6.9,4.2,11.3
		c0.9,4.4,1.3,9.3,1.3,14.8c0,6-0.6,11.1-1.8,15.2c-1.2,4.2-2.8,7.5-4.8,10.1c-2,2.5-4.3,4.4-6.9,5.5s-5.3,1.7-8,1.7H222.8
		 M241.1,2.4h-37.2h10.7v108.3h26.5c6.6,0,12.3-1.4,17.2-4.2c4.9-2.8,8.9-6.6,12.2-11.5c3.3-4.9,5.7-10.6,7.3-17.3
		c0.6-2.6,1.1-5.2,1.5-8v-1.2L248,3C245.8,2.6,243.5,2.4,241.1,2.4"/>
	<polyline class="st0" points="214.6,2.4 203.9,2.4 203.9,110.7 214.6,110.7 214.6,2.4 	"/>
	<path class="st3" d="M330.3,2.4h-21.1l-20,42.8L269,2.4h-21.3L248,3c3,0.5,5.9,1.4,8.6,2.7c4.8,2.2,8.9,5.6,12.4,10
		c3.5,4.5,6.2,10,8.2,16.7c2,6.7,3,14.5,3,23.5c0,4.8-0.3,9.4-0.9,13.8v41.1h19V69.2L330.3,2.4"/>
	<path class="st2" d="M248,3l31.3,65.5v1.2c0.6-4.4,0.9-9,0.9-13.8c0-9-1-16.8-3-23.5c-2-6.7-4.7-12.2-8.2-16.7
		c-3.5-4.4-7.6-7.8-12.4-10C253.8,4.4,251,3.5,248,3"/>
	<polyline class="st11" points="438,3.7 411.3,3.7 392.2,78.2 392,78.2 371.8,3.7 345.2,3.7 345.2,112 363,112 363,36 363.2,36 
		384.3,112 398.9,112 420,35.2 420.2,35.2 420.2,111.4 438,52.3 438,3.7 	"/>
	<path class="st10" d="M420.2,111.4L420,112h0.2V111.4 M450.9,70.1l11.2-39.8h0.2l10.9,39.8H450.9 M472.1,3.7h-19.5L438,52.3V112
		h1.1l6.8-24.1h32.3l6.5,24.1h19.7h-19.5V46.7L472.1,3.7"/>
	<polyline class="st8" points="438,52.3 420.2,111.4 420.2,112 438,112 438,52.3 	"/>
	<path class="st7" d="M503.8,92V23.7h13.5c4.7,0,8.6,0.8,11.8,2.5s5.8,4.1,7.7,7.2c2,3.1,3.4,6.9,4.2,11.3c0.9,4.4,1.3,9.3,1.3,14.8
		c0,6-0.6,11.1-1.8,15.2c-1.2,4.2-2.8,7.5-4.8,10.1c-2,2.5-4.3,4.4-6.9,5.5c-2.6,1.1-5.3,1.7-8,1.7H503.8 M522.1,3.7h-37.2v42.9
		l19.5,65.4h17.7c6.6,0,12.3-1.4,17.2-4.2c3.1-1.8,5.9-4,8.3-6.6v-87c-2.9-3.1-6.3-5.5-10-7.2C532.8,4.9,527.7,3.7,522.1,3.7"/>
	<polyline class="st5" points="484.9,46.7 484.9,112 504.4,112 484.9,46.7 	"/>
	<path class="st1" d="M612.1,2.5h-64.5v11.7c0.8,0.9,1.6,1.8,2.4,2.8c3.5,4.5,6.2,10,8.2,16.7c2,6.7,3,14.5,3,23.5
		c0,7.9-0.8,15.2-2.4,21.8c-1.6,6.7-4,12.4-7.3,17.3c-1.2,1.8-2.5,3.4-3.9,4.9v9.6h65.5v-20h-46.5V64.2h41.8V45.7h-41.8V22.5h45.5
		V2.5"/>
	<path class="st6" d="M547.6,14.3v87c1.4-1.5,2.7-3.1,3.9-4.9c3.3-4.9,5.7-10.6,7.3-17.3c1.6-6.6,2.4-13.9,2.4-21.8
		c0-9-1-16.8-3-23.5c-2-6.7-4.7-12.2-8.2-16.7C549.2,16.1,548.4,15.2,547.6,14.3"/>
	<polyline class="st4" points="685,3.7 625.1,3.7 625.1,23.7 650.9,23.7 650.9,112 669.9,112 669.9,23.7 685,23.7 685,3.7 	"/>
	<polyline class="st3" points="757.9,3.7 738.9,3.7 738.9,45.3 704,45.3 704,3.7 685,3.7 695.8,3.7 695.8,23.7 685,23.7 685,112 
		704,112 704,65.3 738.9,65.3 738.9,112 757.9,112 752.5,112 752.5,3.9 757.9,3.9 757.9,3.7 	"/>
	<polyline class="st2" points="695.8,3.7 685,3.7 685,23.7 695.8,23.7 695.8,3.7 	"/>
	<path class="st11" d="M771.5,3.9h-13.6V112h13.6v-8.5c-3.2-3-5.8-6.9-7.7-11.5c-2-4.9-3-10.6-2.9-17.3h10.6V53.4
		c-2-2.2-3.8-4.8-5.1-7.9c-1.5-3.5-2.2-7.7-2.2-12.7c0-5.6,0.9-10.4,2.8-14.5c1.2-2.7,2.8-5.1,4.5-7.2V3.9"/>
	<polyline class="st9" points="757.9,3.9 752.5,3.9 752.5,112 757.9,112 757.9,3.9 	"/>
	<path class="st10" d="M796.4,0c-3.8,0-7.7,0.7-11.6,2c-3.9,1.4-7.3,3.4-10.4,6.1c-1,0.9-2,1.9-2.9,3v42.3c0.3,0.3,0.5,0.5,0.8,0.8
		c2.4,2.3,5.1,4.2,8.2,5.7c3,1.5,6.2,2.7,9.4,3.7c3.1,1.1,6.2,2.1,9.3,3c3,0.9,5.8,2,8.2,3.2c2.4,1.2,4.4,2.7,5.9,4.5
		c1.5,1.8,2.2,4.2,2.2,7.1c0,2.7-0.6,4.9-1.7,6.7c-1.1,1.8-2.5,3.2-4.2,4.2s-3.6,1.6-5.5,2c-1.9,0.3-3.7,0.5-5.4,0.5
		c-2.5,0-5-0.3-7.3-1.1c-2.3-0.8-4.4-1.9-6.1-3.5c-1.8-1.5-3.2-3.6-4.2-6.1c-1.1-2.5-1.6-5.6-1.8-9.4h-7.8v28.8
		c0.2,0.2,0.3,0.3,0.5,0.5c3.5,3.1,7.4,5.4,11.9,6.9s9.1,2.2,13.9,2.2c5.9,0,11.1-0.9,15.6-2.6s8.3-4.1,11.3-7.2s5.3-6.8,6.8-11
		c1.5-4.2,2.3-8.8,2.3-13.8c0-6-1-11-3.1-14.9c-2-3.9-4.5-7-7.3-9.3c-2.8-2.3-5.6-4-8.5-5.1c-2.8-1.1-5.1-1.8-6.7-2.2
		c-5.4-1.7-9.8-3.1-13.1-4.2c-3.4-1.1-6-2.2-7.9-3.3s-3.2-2.3-3.8-3.6c-0.7-1.4-1-3.1-1-5.2c0-2.4,0.4-4.3,1.2-5.8s1.8-2.8,3.1-3.8
		c1.3-1,2.7-1.7,4.2-2.1c1.5-0.4,3.1-0.6,4.6-0.6c2.4,0,4.5,0.3,6.5,0.8s3.8,1.4,5.3,2.6c1.5,1.2,2.8,2.9,3.7,5
		c0.9,2.1,1.4,4.8,1.6,8H831c0-6.3-0.9-11.6-2.8-16c-1.9-4.4-4.5-8-7.7-10.8c-3.2-2.8-6.9-4.8-11.1-6.1C805.3,0.6,800.9,0,796.4,0"
		/>
	<path class="st8" d="M771.5,74.7h-10.6c-0.1,6.7,0.9,12.4,2.9,17.3c1.9,4.7,4.5,8.5,7.7,11.5V74.7 M771.5,11.2
		c-1.7,2.1-3.2,4.5-4.5,7.2c-1.9,4.1-2.8,8.9-2.8,14.5c0,5,0.7,9.2,2.2,12.7c1.3,3.1,3.1,5.7,5.1,7.9V11.2"/>
</g>
</svg>
