<?xml version="1.0" encoding="utf-8"?>
<!-- Generator: Adobe Illustrator 16.0.0, SVG Export Plug-In . SVG Version: 6.00 Build 0)  -->
<!DOCTYPE svg PUBLIC "-//W3C//DTD SVG 1.1//EN" "http://www.w3.org/Graphics/SVG/1.1/DTD/svg11.dtd">
<svg version="1.1" id="Home_1_" xmlns="http://www.w3.org/2000/svg" xmlns:xlink="http://www.w3.org/1999/xlink" x="0px" y="0px"
	 width="833.8px" height="113.2px" viewBox="8.8 19.4 833.8 113.2" style="enable-background:new 8.8 19.4 833.8 113.2;"
	 xml:space="preserve">
<style type="text/css">
<![CDATA[
	.st0{fill:#80DB2F;}
	.st1{enable-background:new    ;}
	.st2{fill:#FEAE22;}
	.st3{fill:#FFDE17;}
	.st4{fill:#00A99D;}
	.st5{fill:#0D6EEE;}
	.st6{fill:#A81ACE;}
]]>
</style>
<g id="MANDY_1_">
	<g id="M_1_">
		<g class="st1">
			<path class="st5" d="M35.5,22.5L55.7,97H56L75,22.5h26.7v108.3H84V54h-0.2l-21.1,76.8H48l-21.1-76h-0.2v76H8.8V22.5H35.5z"/>
		</g>
	</g>
	<g id="A_1_">
		<g class="st1">
			<path class="st4" d="M136.2,22.5l32.3,108.3h-19.7l-6.5-24.1H110l-6.8,24.1H84.2l32.6-108.3H136.2z M137.3,88.9l-10.9-39.8h-0.2
				L115,88.9H137.3z"/>
		</g>
	</g>
	<g id="N">
		<g class="st1">
			<path class="st0" d="M169.4,22.5l36,72.7h0.2V22.5h17.8v108.3h-19l-35.9-72.5h-0.2v72.5h-17.8V22.5H169.4z"/>
		</g>
	</g>
	<g id="D_1_">
		<g class="st1">
			<path class="st3" d="M249.9,22.5c5.6,0,10.7,1.1,15.5,3.3c4.8,2.2,8.9,5.6,12.4,10c3.5,4.5,6.2,10,8.2,16.7c2,6.7,3,14.5,3,23.5
				c0,7.9-0.8,15.2-2.4,21.8c-1.6,6.7-4,12.4-7.3,17.3c-3.3,4.9-7.3,8.7-12.2,11.5c-4.9,2.8-10.6,4.2-17.2,4.2h-37.2V22.5H249.9z
				 M248.6,110.8c2.7,0,5.4-0.6,8-1.7c2.6-1.1,4.9-3,6.9-5.5c2-2.6,3.6-5.9,4.8-10.1c1.2-4.1,1.8-9.2,1.8-15.2
				c0-5.5-0.4-10.4-1.3-14.8c-0.8-4.4-2.2-8.2-4.2-11.3c-1.9-3.1-4.5-5.5-7.7-7.2c-3.2-1.7-7.1-2.5-11.8-2.5h-13.5v68.3H248.6z"/>
		</g>
	</g>
	<g id="Y">
		<g class="st1">
			<path class="st2" d="M256.5,22.5h21.3L298,65.3L318,22.5h21.1l-32,66.8v41.6h-19V88.6L256.5,22.5z"/>
		</g>
	</g>
</g>
<g id="This">
	<g id="M">
		<g class="st1">
			<path class="st6" d="M380.6,23.1l20.2,74.5h0.2l19.1-74.5h26.7v108.3h-17.8V54.6h-0.2l-21.1,76.8h-14.6l-21.1-76h-0.2v76h-17.8
				V23.1H380.6z"/>
		</g>
	</g>
	<g id="A">
		<g class="st1">
			<path class="st5" d="M480.9,23.1l32.3,108.3h-19.7l-6.5-24.1h-32.3l-6.8,24.1h-19.1l32.6-108.3H480.9z M482,89.5l-10.9-39.8h-0.2
				l-11.2,39.8H482z"/>
		</g>
	</g>
	<g id="D">
		<g class="st1">
			<path class="st4" d="M530.9,23.1c5.6,0,10.7,1.1,15.5,3.3c4.8,2.2,8.9,5.6,12.4,10c3.5,4.5,6.2,10,8.2,16.7c2,6.7,3,14.5,3,23.5
				c0,7.9-0.8,15.2-2.4,21.8c-1.6,6.7-4,12.4-7.3,17.3s-7.3,8.7-12.2,11.5c-4.9,2.8-10.6,4.2-17.2,4.2h-37.2V23.1H530.9z
				 M529.6,111.4c2.7,0,5.4-0.6,8-1.7c2.6-1.1,4.9-3,6.9-5.5c2-2.6,3.6-5.9,4.8-10.1c1.2-4.1,1.8-9.2,1.8-15.2
				c0-5.5-0.4-10.4-1.3-14.8c-0.8-4.4-2.2-8.2-4.2-11.3c-1.9-3.1-4.5-5.5-7.7-7.2s-7.1-2.5-11.8-2.5h-13.5v68.3H529.6z"/>
		</g>
	</g>
	<g id="E">
		<g class="st1">
			<path class="st0" d="M620.9,21.9v20h-45.5v23.2h41.8v18.5h-41.8v26.6h46.5v20h-65.5V21.9H620.9z"/>
		</g>
	</g>
	<g class="st1">
		<path class="st3" d="M633.9,43.1v-20h70.7v20h-25.9v88.3h-19V43.1H633.9z"/>
	</g>
	<g class="st1">
		<path class="st2" d="M712.8,23.1v41.6h34.9V23.1h19v108.3h-19V84.7h-34.9v46.7h-19V23.1H712.8z"/>
	</g>
	<g class="st1">
		<path class="st6" d="M780.3,23.2v108.2h-19V23.2H780.3z"/>
	</g>
	<g class="st1">
		<path class="st5" d="M789.9,103.5c1,2.5,2.4,4.6,4.2,6.1c1.7,1.6,3.8,2.7,6.1,3.5c2.3,0.8,4.8,1.1,7.3,1.1c1.7,0,3.5-0.2,5.4-0.5
			c1.9-0.4,3.8-1,5.5-2c1.7-1,3.1-2.4,4.2-4.2c1.1-1.8,1.7-4,1.7-6.7c0-2.9-0.7-5.3-2.2-7.1c-1.5-1.8-3.5-3.3-5.9-4.5
			s-5.2-2.3-8.2-3.2c-3.1-0.9-6.2-1.9-9.3-3c-3.2-1-6.4-2.2-9.4-3.7c-3.1-1.5-5.8-3.4-8.2-5.7c-2.4-2.3-4.4-5.2-5.9-8.7
			c-1.5-3.5-2.2-7.7-2.2-12.7c0-5.6,0.9-10.4,2.8-14.5c1.9-4.1,4.4-7.5,7.4-10.2c3.1-2.7,6.5-4.7,10.4-6.1c3.9-1.3,7.8-2,11.6-2
			c4.5,0,8.9,0.6,13,1.9c4.2,1.3,7.9,3.3,11.1,6.1c3.2,2.8,5.8,6.4,7.7,10.8c1.9,4.4,2.8,9.7,2.8,16h-18.4c-0.2-3.2-0.7-5.9-1.6-8
			s-2.2-3.8-3.7-5c-1.5-1.2-3.3-2.1-5.3-2.6c-2-0.5-4.1-0.8-6.5-0.8c-1.5,0-3.1,0.2-4.6,0.6c-1.5,0.4-2.9,1.1-4.2,2.1
			c-1.3,1-2.3,2.3-3.1,3.8s-1.2,3.4-1.2,5.8c0,2.1,0.3,3.8,1,5.2c0.6,1.3,1.9,2.5,3.8,3.6c1.9,1.1,4.5,2.2,7.9,3.3
			c3.3,1.1,7.7,2.5,13.1,4.2c1.6,0.4,3.9,1.1,6.7,2.2c2.9,1.1,5.7,2.8,8.5,5.1c2.8,2.3,5.3,5.4,7.3,9.3c2.1,3.9,3.1,8.9,3.1,14.9
			c0,5-0.8,9.6-2.3,13.8s-3.8,7.9-6.8,11c-3,3.1-6.8,5.5-11.3,7.2c-4.5,1.7-9.7,2.6-15.6,2.6c-4.8,0-9.4-0.7-13.9-2.2
			c-4.5-1.5-8.4-3.8-11.9-6.9c-3.4-3.1-6.2-7.1-8.2-12c-2-4.9-3-10.6-2.9-17.3h18.4C788.3,97.9,788.8,101,789.9,103.5z"/>
	</g>
</g>
</svg>
